# xmcd
# 
# Track frame offsets:
#     150
#     16319
#     30407
#     44734
#     58392
#     78667
# 
# Disc length: 1302
# 
# Revision: 0
# Processed by: cddbd v1.5.2PL0 Copyright (c) Steve Scherf et al.
# Submitted via: fre:ac v1.0.17
# 
DISCID=4c051406
DTITLE=T字路’S - これさえあれば
DYEAR=0
DGENRE=
TTITLE0=その日暮らし
TTITLE1=これさえあれば
TTITLE2=この夜いつまで
TTITLE3=まむしは眠ってる
TTITLE4=電気椅子
TTITLE5=新しい街－カンザスシティバンド
EXTD=
EXTT0=
EXTT1=
EXTT2=
EXTT3=
EXTT4=
EXTT5=
PLAYORDER=
